<svg xmlns="http://www.w3.org/2000/svg" viewBox="0 0 275.8 272.8"><title>Fichier 3</title><g id="Calque_2" data-name="Calque 2"><g id="Calque_1-2" data-name="Calque 1"><path d="M1,136.11c.56-2.23,1.11-4.47,1.67-6.7,3.59-14.15,15.9-24.8,30.58-25,24.42-.42,48.84-.11,74.78-.11-2.23,2.32-3.4,3.59-4.63,4.81-18.68,18.52-37.75,36.68-55.85,55.75-6.29,6.63-12.39,7.56-20.31,5.61C13.08,166.94,3.88,159,2.14,143.82A10.73,10.73,0,0,0,1,141.11Z" transform="translate(-1 -1.57)"/><path d="M65.71,244.94c-14.12,0-26.36-7.7-31.27-20.68-5.22-13.81-3-26.63,7.64-37.25q58.28-58,116.72-115.8c10.06-10,20-20,30.16-29.9C198.62,31.94,210.23,29,223,32.86c12.46,3.76,20.39,12.48,23,25.25,2.52,12.06-.76,22.74-9.59,31.52Q204.05,121.85,171.56,154,131.29,194,91,233.93C84,240.91,75.89,245.26,65.71,244.94Z" transform="translate(-1 -1.57)"/><path d="M171.67,171.29c1.07-1.2,1.67-2,2.37-2.66,20.9-20.55,41.88-41,62.66-61.69,4.36-4.34,9-1.83,13.08-1,18.3,3.91,28.52,18.54,26.84,37.45-1.36,15.3-15.68,28.83-32.49,29.1-23.47.37-46.95-.31-70.43-.56A9.25,9.25,0,0,1,171.67,171.29Z" transform="translate(-1 -1.57)"/><path d="M146.63,194.93c3.62-3.33,6.65-6.42,10-9.08a8.65,8.65,0,0,1,5.05-1.38c21.67-.07,43.33.12,65-.1,4.3-.05,6.25,2.59,8.57,5.07,18.43,19.68,9.51,50.38-16.64,56.64-11.2,2.68-21.87.36-30.13-7.81C174.53,224.46,161.16,210,146.63,194.93Z" transform="translate(-1 -1.57)"/><path d="M131.86,81.19c-3.66,3.5-6.62,6.65-10,9.35a8.51,8.51,0,0,1-5.07,1.37q-32.75,0-65.48-.17a8,8,0,0,1-4.6-1.27C32.1,79.19,29.45,56.48,41,42.2,53.09,27.29,75.27,24.46,89,37.32,103.65,51.09,117.18,66.07,131.86,81.19Z" transform="translate(-1 -1.57)"/><path d="M140.06,205.83c9.81,9.63,20.55,20,31.08,30.67,1.16,1.17,1.66,3.67,1.44,5.43-1.74,14-8.91,24.44-21.92,29.76-12.12,4.95-23.89,3-34-5.64-7.53-6.44-10.42-15.19-11.17-24.75a5.67,5.67,0,0,1,1.17-4.1C117.7,226.66,128.89,216.27,140.06,205.83Z" transform="translate(-1 -1.57)"/><path d="M141.81,69.76c-10.06-9.62-21.17-20.13-32.08-30.85-1-1-1.39-3.41-1.17-5,2.29-17.14,14.78-29.54,32.05-32,18.14-2.64,37.68,16.67,35.09,34.72a4.86,4.86,0,0,1-1.1,2.67C163.56,49.56,152.46,59.85,141.81,69.76Z" transform="translate(-1 -1.57)"/></g></g></svg>